#!OML:ASF H:\Terrain\Patient Classification 1\Walking\steve\steve.ASF
:FULLY-SPECIFIED
:DEGREES
252
root 8.55318 16.6688 20.6644 5.81882 -6.77824 3.07694
lowerback 1.23855 2.49311 -3.95175
upperback -2.87476 3.1462 -1.83193
thorax -3.76935 1.65167 0.175916
lowerneck -11.0456 -0.839434 -2.0303
upperneck 14.5256 -1.56575 4.81495
head 6.28085 -0.484062 1.73291
rclavicle -3.16875e-014 1.07344e-014
rhumerus -47.358 -2.48372 -89.8491
rradius 51.0664
rwrist -21.5984
rhand -26.7863 -43.337
rfingers 7.12502
rthumb -0.213648 -73.3166
lclavicle -3.16875e-014 1.07344e-014
lhumerus -42.2151 23.096 69.313
lradius 13.5559
lwrist -22.4477
lhand -17.9836 -14.4058
lfingers 7.12502
lthumb 8.28619 15.4117
rfemur -30.5599 2.67634 18.3797
rtibia 76.332
rfoot -2.25021 0.702424
rtoes -20.6993
lfemur -16.7282 1.37164 -28.7019
ltibia 29.6789
lfoot -17.1045 -2.50979
ltoes 2.79569
253
root 8.55246 16.6467 20.9 5.89791 -6.16113 3.52065
lowerback 1.01978 2.27892 -4.39234
upperback -2.80728 2.86072 -1.87452
thorax -3.58711 1.51818 0.402731
lowerneck -11.0734 -0.842516 -2.23473
upperneck 14.6732 -1.58569 5.09873
head 6.33677 -0.480265 1.85681
rclavicle 3.64335e-014 -3.26007e-014
rhumerus -48.3062 -3.02171 -89.6175
rradius 49.2095
rwrist -22.3849
rhand -28.9053 -41.8285
rfingers 7.12502
rthumb -2.26028 -71.7962
lclavicle 3.64335e-014 -3.26007e-014
lhumerus -39.3218 19.6115 73.2083
lradius 14.7055
lwrist -17.7338
lhand -19.2843 -15.7134
lfingers 7.12502
lthumb 7.03071 14.1498
rfemur -32.2799 2.27546 18.146
rtibia 75.8974
rfoot -4.01639 1.06398
rtoes -17.7956
lfemur -15.709 1.41862 -29.3304
ltibia 29.3036
lfoot -17.2313 -2.81871
ltoes 2.27482
254
root 8.55531 16.6298 21.1412 5.84843 -5.54978 3.62076
lowerback 1.1788 2.10717 -4.48867
upperback -2.86978 2.61969 -1.77578
thorax -3.74148 1.40543 0.560595
lowerneck -11.1138 -0.880717 -2.53762
upperneck 15.0256 -1.64172 5.36305
head 6.46208 -0.49857 1.98961
rclavicle -1.7698e-014 2.66371e-014
rhumerus -49.5039 -3.45513 -89.243
rradius 47.6462
rwrist -23.4195
rhand -29.2765 -41.3511
rfingers 7.12502
rthumb -2.61872 -71.3147
lclavicle -1.7698e-014 2.66371e-014
lhumerus -37.1244 17.0415 75.8871
lradius 15.8072
lwrist -14.4324
lhand -20.8672 -17.07
lfingers 7.12502
lthumb 5.50256 12.8385
rfemur -33.6651 1.97167 18.303
rtibia 75.0502
rfoot -5.67728 1.23426
rtoes -14.5954
lfemur -14.5617 1.60518 -29.58
ltibia 29.053
lfoot -17.5156 -3.01769
ltoes -0.532407
255
root 8.55312 16.6411 21.3938 5.71452 -5.12412 3.24327
lowerback 1.8834 2.0533 -4.30046
upperback -3.28392 2.50812 -1.48713
thorax -4.57208 1.36614 0.718996
lowerneck -10.5976 -0.936817 -2.66336
upperneck 15.2378 -1.7133 5.3684
head 6.44344 -0.54504 2.00772
rclavicle -8.1129e-015 -1.19271e-015
rhumerus -51.2561 -4.46695 -88.3153
rradius 45.5999
rwrist -23.1391
rhand -29.2142 -41.045
rfingers 7.12502
rthumb -2.55861 -71.0094
lclavicle -8.1129e-015 -1.19271e-015
lhumerus -35.7312 14.1085 78.2521
lradius 17.068
lwrist -11.088
lhand -21.7495 -16.9165
lfingers 7.12502
lthumb 4.65067 13.0124
rfemur -34.6526 1.91221 19.0328
rtibia 73.6971
rfoot -7.26616 1.18637
rtoes -14.2289
lfemur -13.2634 2.03231 -29.2157
ltibia 28.7816
lfoot -17.8357 -3.57173
ltoes -1.27942
256
root 8.55512 16.6532 21.6528 5.46284 -4.62946 3.05812
lowerback 1.77558 1.92388 -4.18599
upperback -2.99861 2.36319 -1.29023
thorax -4.20904 1.28533 0.879608
lowerneck -10.4452 -1.03406 -2.82257
upperneck 14.9206 -1.81812 5.43161
head 6.32251 -0.60512 2.04297
rclavicle 1.09285e-014 -9.34288e-015
rhumerus -51.8667 -5.37266 -87.5068
rradius 43.2987
rwrist -22.7534
rhand -29.5041 -40.6578
rfingers 7.12502
rthumb -2.83858 -70.6186
lclavicle 1.09285e-014 -9.34288e-015
lhumerus -33.49 11.4125 80.5311
lradius 18.5056
lwrist -7.91333
lhand -22.2551 -16.4342
lfingers 7.12502
lthumb 4.16248 13.5049
rfemur -35.3949 1.63906 19.5203
rtibia 72.0334
rfoot -8.5806 1.18181
rtoes -13.6261
lfemur -11.7648 2.52327 -29.0078
ltibia 28.4615
lfoot -17.8342 -4.59392
ltoes 1.6192
257
root 8.56362 16.639 21.9008 5.3662 -3.95568 3.21667
lowerback 1.89626 1.71891 -4.21718
upperback -2.96193 2.08337 -1.27519
thorax -4.22751 1.14724 0.925934
lowerneck -10.4167 -1.19576 -3.13141
upperneck 15.0112 -2.03543 5.70165
head 6.36128 -0.705686 2.16291
rclavicle 1.32223e-014 -1.51076e-014
rhumerus -53.0055 -5.92338 -86.8789
rradius 41.6124
rwrist -22.5779
rhand -28.6365 -39.7052
rfingers 7.12502
rthumb -2.00065 -69.6756
lclavicle 1.32223e-014 -1.51076e-014
lhumerus -31.7217 9.23299 82.0657
lradius 20.0771
lwrist -5.59706
lhand -22.7772 -16.3534
lfingers 7.12502
lthumb 3.65826 13.595
rfemur -36.4045 1.04132 19.6209
rtibia 70.2289
rfoot -9.77139 1.00169
rtoes -13.6047
lfemur -10.445 2.97896 -29.186
ltibia 28.0709
lfoot -17.6708 -5.74906
ltoes 3.69848
258
root 8.56367 16.6233 22.1427 5.53856 -3.42079 3.29118
lowerback 1.87528 1.55596 -4.36636
upperback -3.01088 1.86209 -1.20516
thorax -4.26369 1.04447 1.09411
lowerneck -10.6497 -1.22312 -3.19501
upperneck 15.2176 -2.09812 5.88965
head 6.47297 -0.718666 2.22982
rclavicle 4.35665e-014 -4.87022e-015
rhumerus -54.0011 -6.66343 -86.0704
rradius 39.9462
rwrist -21.7928
rhand -26.7461 -39.1305
rfingers 7.12502
rthumb -0.174859 -69.1101
lclavicle 4.35665e-014 -4.87022e-015
lhumerus -29.8659 6.92857 83.4143
lradius 21.4785
lwrist -3.12959
lhand -23.2062 -16.0123
lfingers 7.12502
lthumb 3.24392 13.9428
rfemur -37.6539 0.841235 19.8217
rtibia 68.206
rfoot -11.1086 0.513055
rtoes -15.0262
lfemur -9.4569 3.20744 -29.2333
ltibia 27.6369
lfoot -17.7073 -6.41693
ltoes 3.19013
259
root 8.55317 16.6251 22.3978 5.60627 -3.03412 3.36685
lowerback 1.81275 1.45379 -4.76115
upperback -3.00112 1.71942 -1.06543
thorax -4.22895 0.98785 1.46882
lowerneck -11.0515 -1.19291 -3.27757
upperneck 15.6754 -2.09473 6.11833
head 6.6922 -0.691524 2.32143
rclavicle 1.91975e-014 -1.8487e-014
rhumerus -54.8811 -7.4155 -85.1446
rradius 37.9091
rwrist -20.6611
rhand -25.3425 -38.6916
rfingers 7.12502
rthumb 1.18074 -68.668
lclavicle 1.91975e-014 -1.8487e-014
lhumerus -28.0128 4.46398 84.6405
lradius 22.8586
lwrist -0.492146
lhand -23.8803 -15.7591
lfingers 7.12502
lthumb 2.59296 14.2048
rfemur -38.5601 1.00641 19.964
rtibia 65.9012
rfoot -12.3302 0.115269
rtoes -15.1052
lfemur -8.34507 3.20306 -29.2199
ltibia 27.2443
lfoot -17.8164 -6.60291
ltoes 0.841466
